<svg width="93" height="40" viewBox="0 0 93 40" fill="none" xmlns="http://www.w3.org/2000/svg">
<path d="M15.2791 24.2413C15.286 25.6135 14.4951 26.5024 13.2364 26.5351C11.8145 26.5677 10.6504 25.2644 10.6504 23.6378C10.6487 22.3053 11.5118 21.2874 12.6742 21.2495C14.0893 21.2065 15.2688 22.5597 15.2791 24.2413Z" fill="white"/>
<path d="M15.6846 18.4506C15.6467 19.8691 14.5635 20.9988 13.2946 20.9472C12.1064 20.899 11.1212 19.735 11.147 18.4162C11.1779 16.9357 12.2509 15.7407 13.5198 15.7665C14.7767 15.7906 15.7276 16.9684 15.6846 18.4488" fill="white"/>
<path d="M15.9982 24.3791C16.0154 23.0569 16.8888 22.168 18.1664 22.1714C19.4508 22.18 20.5788 23.3888 20.5461 24.7213C20.5151 26.0212 19.5866 26.96 18.3538 26.9394C17.0488 26.9188 15.9844 25.7599 15.9982 24.3791Z" fill="white"/>
<path d="M18.5051 21.2755C17.2653 21.2669 16.2939 20.2318 16.3128 18.9439C16.3334 17.6853 17.3719 16.6003 18.5498 16.6021C19.743 16.6021 20.7558 17.7025 20.7334 18.9697C20.7145 20.2748 19.7379 21.2841 18.5033 21.2738" fill="white"/>
<path d="M15.2993 29.7797C15.3355 30.9386 14.7371 31.6332 13.6934 31.6504C12.3144 31.6728 10.9784 30.3712 10.9406 28.9664C10.9113 27.7662 11.453 27.1146 12.5173 27.075C13.9857 27.02 15.2546 28.2511 15.2993 29.7797Z" fill="white"/>
<path d="M16.4416 12.6059C16.4416 14.0434 15.4082 15.2143 14.1462 15.2126C13.1111 15.2126 12.4285 14.4388 12.4336 13.2765C12.4405 11.8648 13.5942 10.5323 14.7944 10.5495C15.7143 10.5632 16.4433 11.4745 16.4399 12.6076" fill="white"/>
<path d="M18.6516 32.072C17.3225 32.072 16.1825 30.9802 16.2014 29.7267C16.2203 28.6383 16.9459 27.9196 18.0446 27.9093C19.2775 27.8972 20.5138 29.063 20.5344 30.2597C20.5516 31.2742 19.7228 32.072 18.6516 32.072Z" fill="white"/>
<path d="M21.7012 24.7935C21.7218 23.5796 22.5265 22.7388 23.6562 22.7456C24.8099 22.7542 25.7109 23.681 25.7143 24.8623C25.7143 25.9919 24.7429 26.9342 23.6183 26.8981C22.5523 26.862 21.684 25.906 21.7029 24.7935" fill="white"/>
<path d="M21.0348 13.318C21.0348 14.5663 20.1217 15.5825 18.9938 15.5859C17.9793 15.5877 17.1815 14.7726 17.1643 13.71C17.1454 12.4411 18.1857 11.2839 19.3274 11.308C20.2885 11.3286 21.0348 12.209 21.0348 13.3163" fill="white"/>
<path d="M25.6752 19.2603C25.6683 20.4415 24.8997 21.248 23.7752 21.2548C22.6318 21.2617 21.7961 20.3831 21.8168 19.2001C21.8391 18.0378 22.7436 17.1248 23.8354 17.1591C24.8808 17.1953 25.6804 18.1066 25.6752 19.2603Z" fill="white"/>
<path d="M23.7768 28.4659C24.9236 28.5226 25.73 29.3978 25.6509 30.4931C25.5822 31.4302 24.6777 32.1833 23.6942 32.118C22.6282 32.0475 21.7478 31.1396 21.8011 30.1647C21.8544 29.1657 22.7279 28.4143 23.7785 28.4659" fill="white"/>
<path d="M15.8149 34.9139C15.7667 35.5036 15.4572 35.9335 14.7299 36.0023C13.4781 36.1226 11.9719 34.8382 11.9324 33.5865C11.9135 32.9262 12.2625 32.5238 12.9124 32.4086C14.1195 32.192 15.7908 33.5847 15.8149 34.9156" fill="white"/>
<path d="M23.9423 11.8151C24.8313 11.803 25.6033 12.6215 25.6326 13.6136C25.6652 14.6745 24.8674 15.5824 23.9045 15.5789C22.9691 15.5789 22.2487 14.8069 22.2384 13.7959C22.2281 12.6937 22.9743 11.8271 23.9441 11.8151" fill="white"/>
<path d="M17.6169 7.26697C17.61 8.54451 16.5646 9.75156 15.4831 9.72748C14.7282 9.71201 14.2812 9.19102 14.2932 8.34162C14.3138 7.14661 15.428 5.87079 16.4614 5.85704C17.1905 5.84844 17.6203 6.37459 17.6152 7.26697" fill="white"/>
<path d="M20.7009 35.1683C20.6854 35.8733 20.0252 36.4665 19.2428 36.4768C18.096 36.4923 16.901 35.452 16.9182 34.4565C16.9336 33.6741 17.5492 33.1549 18.4502 33.1652C19.5592 33.1772 20.7164 34.2072 20.6992 35.1683" fill="white"/>
<path d="M14.0978 6.15792C14.115 7.21365 13.2604 8.56341 12.3337 8.95028C11.4344 9.31996 10.7449 8.85399 10.7827 7.89627C10.8223 6.92135 11.8144 5.55612 12.736 5.21223C13.551 4.90961 14.0858 5.27757 14.0995 6.15792" fill="white"/>
<path d="M27.5664 24.7558C27.5767 23.8118 28.4055 22.9693 29.2893 23.0071C30.1714 23.0466 30.8385 23.7602 30.8505 24.6835C30.8626 25.686 30.0647 26.5422 29.1191 26.5474C28.2783 26.5491 27.5578 25.7152 27.5681 24.7558" fill="white"/>
<path d="M21.539 8.04411C21.5269 9.12564 20.7498 10.0576 19.8367 10.0816C19.0596 10.0988 18.4664 9.46781 18.4629 8.61325C18.4578 7.49389 19.3329 6.48803 20.3044 6.49318C21.1022 6.49834 21.5493 7.05716 21.539 8.04411Z" fill="white"/>
<path d="M27.4922 19.193C27.4956 18.1923 28.1731 17.453 29.0758 17.465C29.9579 17.477 30.6817 18.2662 30.6749 19.2102C30.668 20.1267 29.9837 20.8592 29.1171 20.8746C28.1851 20.8884 27.4922 20.1679 27.4922 19.193Z" fill="white"/>
<path d="M8.12366 7.29137C8.15289 6.25283 9.35477 4.68299 10.3624 4.34942C10.9951 4.13965 11.2616 4.43711 11.2805 5.01828C11.3167 6.04134 10.1612 7.71779 9.20346 8.07715C8.52601 8.33163 8.10474 8.02385 8.12366 7.29137Z" fill="white"/>
<path d="M29.3392 28.7188C30.1198 28.7257 30.744 29.3722 30.7457 30.1786C30.7491 31.0091 29.9668 31.7794 29.107 31.7948C28.2834 31.8103 27.5699 31.1311 27.5802 30.3368C27.5888 29.4874 28.433 28.7136 29.3375 28.7188" fill="white"/>
<path d="M23.9101 33.6878C24.8369 33.7377 25.5333 34.4031 25.5075 35.2112C25.4817 35.9833 24.7475 36.561 23.8517 36.518C22.8836 36.4682 22.158 35.7701 22.2096 34.9275C22.256 34.1555 22.9679 33.6345 23.9101 33.6878Z" fill="white"/>
<path d="M30.1885 13.715C30.1902 14.5524 29.5832 15.2109 28.825 15.2058C28.0426 15.1989 27.3996 14.5025 27.3755 13.6428C27.3548 12.8519 27.9996 12.097 28.7063 12.0781C29.4904 12.0558 30.1885 12.8295 30.1885 13.715Z" fill="white"/>
<path d="M25.4867 8.46055C25.4764 9.377 24.8918 10.0613 24.1112 10.0682C23.3736 10.0768 22.7993 9.37872 22.8251 8.51213C22.856 7.62662 23.4784 6.90618 24.223 6.89758C24.9623 6.88726 25.4971 7.54925 25.4867 8.46227" fill="white"/>
<path d="M1.79969 23.6055C3.02049 24.3328 3.76844 27.0512 3.11334 28.3752C1.70512 27.9539 0.828205 24.7609 1.79969 23.6055Z" fill="white"/>
<path d="M14.3528 36.9138C15.1695 36.888 16.3456 37.7013 16.619 38.4802C16.8442 39.1267 16.5743 39.5377 15.9106 39.548C15.1196 39.5652 13.873 38.7158 13.6203 37.985C13.4002 37.3506 13.6839 36.9327 14.3528 36.9121" fill="white"/>
<path d="M8.98997 3.48072C9.16019 4.66197 7.9222 6.67543 6.85615 6.92303C6.68936 6.95914 6.26638 6.63417 6.25434 6.45878C6.18213 5.33599 7.76057 3.62516 8.98997 3.479" fill="white"/>
<path d="M16.4414 1.84412C16.3503 2.73479 15.298 3.98138 14.5191 4.18427C13.9207 4.34074 13.5098 3.97278 13.692 3.36926C13.9964 2.35136 14.7082 1.65327 15.6745 1.26811C16.2007 1.06006 16.5274 1.29734 16.4414 1.8424" fill="white"/>
<path d="M19.9978 4.29264C19.9841 3.26786 20.775 2.23448 21.449 2.25168C22.0835 2.27059 22.2589 2.72452 22.2589 3.28506C22.2572 4.18948 21.6227 5.00621 20.8954 5.01997C20.2626 5.032 20.0167 4.65888 19.9961 4.29264" fill="white"/>
<path d="M28.8786 36.2257C28.263 36.1673 27.7317 35.9712 27.6802 35.2147C27.632 34.5338 28.3095 33.889 29.0884 33.901C29.7452 33.9131 30.2507 34.1985 30.3281 34.9086C30.4003 35.5448 29.6334 36.2223 28.8786 36.2274" fill="white"/>
<path d="M35.3375 18.9232C35.3014 19.5198 35.0315 20.0477 34.2612 20.1027C33.6198 20.1508 33.0232 19.5198 33.0455 18.8234C33.0679 18.1202 33.4101 17.6112 34.1391 17.5201C34.7581 17.4444 35.3255 18.1013 35.3375 18.9232Z" fill="white"/>
<path d="M14.2557 0.621582C14.2832 1.65152 12.9059 3.34001 11.9791 3.45349C11.4152 3.52227 11.3464 3.20933 11.4702 2.75024C11.735 1.79768 13.1484 0.686921 14.2557 0.621582Z" fill="white"/>
<path d="M29.4598 8.54292C29.4288 9.18255 29.1795 9.68463 28.4367 9.7173C27.8109 9.74481 27.3191 9.11378 27.3243 8.35551C27.3294 7.67977 27.6097 7.11407 28.3215 7.14846C29.0746 7.18629 29.4151 7.77778 29.4598 8.54292Z" fill="white"/>
<path d="M24.0705 40.0001C23.4103 39.8969 22.781 39.6923 22.8222 38.8893C22.8601 38.1001 23.5083 38.0038 24.129 38.0451C24.7704 38.0846 25.3498 38.3769 25.3429 39.0853C25.3395 39.847 24.7085 39.9897 24.0705 40.0001Z" fill="white"/>
<path d="M2.76042 28.9834C4.05171 30.1457 4.62944 31.4353 4.8994 32.9862C3.76113 32.6131 2.61598 30.5223 2.76042 28.9834Z" fill="white"/>
<path d="M9.53038 37.9575C8.3474 37.7116 7.06298 36.2518 7.02344 35.1152C8.16686 35.2064 9.56992 36.7951 9.53038 37.9575Z" fill="white"/>
<path d="M12.7385 0.000841139C12.104 1.23024 11.2718 2.14326 9.94272 2.59375C9.78281 1.44517 11.3853 -0.0404253 12.7385 0.000841139Z" fill="white"/>
<path d="M7.86595 2.49414C7.25555 3.94362 6.56262 5.03203 5.26961 5.75591C5.21114 4.53339 6.42507 2.96527 7.86595 2.49414Z" fill="white"/>
<path d="M3.17315 20.4413C3.17315 21.8753 2.72266 23.0359 2.16556 23.0359C1.60846 23.0359 1.15625 21.8753 1.15625 20.4413C1.15625 19.0073 1.60674 17.8467 2.16556 17.8467C2.72438 17.8467 3.17315 19.0073 3.17315 20.4413Z" fill="white"/>
<path d="M6.2531 22.0577C6.2531 23.4848 5.56361 24.6455 4.71249 24.6455C3.86137 24.6455 3.17188 23.4866 3.17188 22.0577C3.17188 20.6289 3.86309 19.4717 4.71249 19.4717C5.56189 19.4717 6.2531 20.6306 6.2531 22.0577Z" fill="white"/>
<path d="M10.381 23.0621C10.381 24.5133 9.52127 25.6894 8.46209 25.6894C7.40292 25.6894 6.54492 24.5133 6.54492 23.0621C6.54492 21.6109 7.40464 20.4297 8.46209 20.4297C9.51955 20.4297 10.381 21.6075 10.381 23.0621Z" fill="white"/>
<path d="M3.42573 12.6024C3.42573 12.6024 2.03298 12.9119 1.75443 15.7662C1.45353 18.8216 3.68192 17.4908 3.96907 15.5856C4.23386 13.8146 4.0688 12.4941 3.42573 12.6024Z" fill="white"/>
<path d="M5.82047 13.894C5.82047 13.894 4.47931 13.9663 4.13026 16.4835C3.78466 19.0008 5.74653 19.6662 6.54435 17.6183C7.34389 15.5722 6.89168 13.98 5.82047 13.894Z" fill="white"/>
<path d="M9.41886 14.8036C9.41886 14.8036 7.25925 14.5543 7.26957 18.3577C7.26957 18.3577 7.74929 20.6239 9.65959 19.5957C9.65959 19.5957 11.0936 18.7635 10.8752 16.542C10.7514 15.2868 9.41886 14.8036 9.41886 14.8036Z" fill="white"/>
<path d="M0.496726 16.7307C0.496726 16.7307 -0.620908 19.1946 0.496726 21.5468C0.496726 21.5468 0.778714 22.0506 0.857808 20.694C0.938621 19.3373 0.959255 17.6626 0.708217 16.808C0.708217 16.808 0.589576 16.49 0.496726 16.7307Z" fill="white"/>
<path d="M5.69729 7.74345C5.69729 7.74345 4.49197 7.84834 3.77496 9.9237C3.0614 12.0008 4.02256 12.5183 4.84445 11.5761C5.66462 10.6321 6.78226 7.6592 5.69729 7.74345Z" fill="white"/>
<path d="M7.96583 8.8095C7.96583 8.8095 6.31689 9.07601 5.81997 11.2219C5.40731 12.9843 6.75535 13.9523 8.01397 12.398C9.27604 10.8419 8.99405 8.70289 7.96411 8.8095" fill="white"/>
<path d="M10.2868 9.92372C10.2868 9.92372 8.64816 10.9107 8.50201 12.8811C8.35586 14.8516 10.9591 15.0046 11.805 13.1786C12.651 11.3474 11.9529 9.18264 10.3814 9.92372" fill="white"/>
<path d="M0.911204 15.909C0.911204 15.909 0.271573 13.5912 1.63853 11.8116C1.63853 11.8116 2.18359 10.9742 2.11309 11.8838C2.04259 12.7917 1.20867 15.407 1.20007 16.1326C1.20007 16.1326 1.0522 16.3561 0.911204 15.909Z" fill="white"/>
<path d="M2.60584 10.6114C2.60584 10.6114 1.96105 9.28395 3.55153 7.3771C3.55153 7.3771 4.36654 6.49503 4.5488 6.92833C4.73278 7.35991 4.07423 8.25401 3.72519 8.92631C3.37614 9.59861 2.86891 11.2751 2.60584 10.6114Z" fill="white"/>
<path d="M7.17912 26.2359C7.17912 26.2359 6.07696 27.4137 7.55051 29.8416C9.02235 32.2711 10.8879 30.4864 10.4701 28.6552C10.0523 26.8257 8.31566 25.2352 7.18083 26.2376" fill="white"/>
<path d="M4.31389 24.8657C4.31389 24.8657 3.4301 25.1408 3.53155 26.6385C3.63471 28.1412 4.53914 29.2984 5.72039 29.7352C6.90508 30.1736 6.55947 27.7423 6.02129 26.5353C5.48655 25.3265 5.03433 24.9242 4.31389 24.8674" fill="white"/>
<path d="M11.6747 38.6487C11.6747 38.6487 13.3391 39.4981 12.6342 37.9575C12.6342 37.9575 11.8673 36.2828 10.1874 36.018C8.92876 35.8185 10.674 38.2412 11.6747 38.6487Z" fill="white"/>
<path d="M35.8086 24.4222C35.8086 25.165 35.2584 25.7668 34.5792 25.7668C33.9001 25.7668 33.3516 25.165 33.3516 24.4222C33.3516 23.6794 33.9018 23.0811 34.5792 23.0811C35.2567 23.0811 35.8086 23.6811 35.8086 24.4222Z" fill="white"/>
<path d="M20.919 39.4138C20.6783 39.921 19.8564 40.0362 19.0809 39.6734C18.3055 39.3089 17.8705 38.6022 18.1077 38.0915C18.3467 37.5826 19.1721 37.4657 19.9458 37.8285C20.7196 38.1947 21.1563 38.9014 20.9173 39.4138" fill="white"/>
<path d="M8.91239 31.482L8.90895 31.4769C8.90895 31.4769 8.15411 31.2413 7.90651 31.6523C7.75177 31.9119 7.85665 32.4587 7.95982 32.8266C7.98561 32.9401 8.02172 33.0553 8.0647 33.1705C8.06814 33.1808 8.07158 33.1963 8.07158 33.1963C8.44126 34.13 9.35428 35.0791 10.1676 35.227C10.6714 35.3198 11.1253 35.2717 11.2835 34.6699C11.5672 33.5987 10.2845 31.8294 8.91067 31.482" fill="white"/>
<path d="M7.69209 33.6158C7.38775 32.2729 6.84785 31.1948 5.74569 30.483C5.55999 30.3643 5.22814 30.2887 5.06651 30.3781C4.9066 30.4675 4.76905 30.8045 4.80172 31.0057C5.00117 32.297 5.62533 33.3544 6.71545 34.0955C6.81862 34.1643 6.96821 34.2141 7.1092 34.2313C7.1092 34.2313 7.82793 34.4377 7.69209 33.6158Z" fill="white"/>
<path d="M18.6228 1.75286C18.6228 1.75286 17.2989 1.56716 16.5887 3.77836C16.5509 4.0122 16.5716 4.52115 16.8398 4.64667C17.0771 4.75844 17.5379 4.73264 17.8113 4.6226C18.6796 4.2684 19.0372 3.51013 19.1903 2.66932C19.2006 2.17756 18.9495 1.80101 18.6228 1.75286Z" fill="white"/>
<path d="M44.4648 9.52832H59.9088V13.5862H48.9285V17.902H58.6038V21.9598H48.9285V29.8125H44.4648V9.52832Z" fill="white"/>
<path d="M56.5176 9.52832H61.4438L66.7465 23.8151L72.0475 9.52832H76.8585L68.6585 29.9569H64.7176L56.5176 9.52832Z" fill="white"/>
<path d="M73.2949 19.7277V19.6692C73.2949 13.904 77.6417 9.18066 83.8712 9.18066C87.6935 9.18066 89.9838 10.4548 91.8683 12.3083L89.0278 15.5838C87.4631 14.1636 85.8692 13.2953 83.8419 13.2953C80.422 13.2953 77.9598 16.1323 77.9598 19.6108V19.6692C77.9598 23.1459 80.3652 26.0414 83.8419 26.0414C86.158 26.0414 87.5783 25.1164 89.1739 23.6652L92.0144 26.5349C89.927 28.765 87.6092 30.156 83.6975 30.156C77.7293 30.156 73.2966 25.5497 73.2966 19.726" fill="white"/>
</svg>
